HIERARCHY
ROOT hip
{
  OFFSET 0 0 0
  CHANNELS 6 Xposition Yposition Zposition Zrotation Yrotation Xrotation
  JOINT abdomen
  {
    OFFSET 0 20.6881 -0.73152
    CHANNELS 3 Zrotation Xrotation Yrotation
    JOINT chest
    {
      OFFSET 0 11.7043 -0.48768
      CHANNELS 3 Zrotation Xrotation Yrotation
      JOINT neck
      {
        OFFSET 0 22.1894 -2.19456
        CHANNELS 3 Zrotation Xrotation Yrotation
        JOINT head
        {
          OFFSET -0.24384 7.07133 1.2192
          CHANNELS 3 Zrotation Xrotation Yrotation
          JOINT leftEye
          {
            OFFSET 4.14528 8.04674 8.04672
            CHANNELS 3 Zrotation Xrotation Yrotation
            End Site
            {
              OFFSET 1 0 0
            }
          }
          JOINT rightEye
          {
            OFFSET -3.6576 8.04674 8.04672
            CHANNELS 3 Zrotation Xrotation Yrotation
            End Site
            {
              OFFSET 1 0 0
            }
          }
        }
      }
      JOINT rCollar
      {
        OFFSET -2.68224 19.2634 -4.8768
        CHANNELS 3 Zrotation Xrotation Yrotation
        JOINT rShldr
        {
          OFFSET -8.77824 -1.95073 1.46304
          CHANNELS 3 Zrotation Xrotation Yrotation
          JOINT rForeArm
          {
            OFFSET -28.1742 -1.7115 0.48768
            CHANNELS 3 Zrotation Xrotation Yrotation
            JOINT rHand
            {
              OFFSET -22.5879 0.773209 7.07136
              CHANNELS 3 Zrotation Xrotation Yrotation
              JOINT rThumb1
              {
                OFFSET -1.2192 -0.487915 3.41376
                CHANNELS 3 Zrotation Xrotation Yrotation
                JOINT rThumb2
                {
                  OFFSET -3.37035 -0.52449 3.41376
                  CHANNELS 3 Zrotation Xrotation Yrotation
                  End Site
                  {
                    OFFSET -1.78271 -1.18214 1.43049
                  }
                }
              }
              JOINT rIndex1
              {
                OFFSET -7.75947 0.938293 5.60832
                CHANNELS 3 Zrotation Xrotation Yrotation
                JOINT rIndex2
                {
                  OFFSET -2.54057 -0.884171 1.56538
                  CHANNELS 3 Zrotation Xrotation Yrotation
                  End Site
                  {
                    OFFSET -1.62519 -0.234802 1.16502
                  }
                }
              }
              JOINT rMid1
              {
                OFFSET -8.24714 1.18213 3.41376
                CHANNELS 3 Zrotation Xrotation Yrotation
                JOINT rMid2
                {
                  OFFSET -3.10165 -0.590103 1.0647
                  CHANNELS 3 Zrotation Xrotation Yrotation
                  End Site
                  {
                    OFFSET -2.48547 -0.328903 0.83742
                  }
                }
              }
              JOINT rRing1
              {
                OFFSET -8.82822 0.546677 1.51678
                CHANNELS 3 Zrotation Xrotation Yrotation
                JOINT rRing2
                {
                  OFFSET -2.60934 -0.819778 -0.0198488
                  CHANNELS 3 Zrotation Xrotation Yrotation
                  End Site
                  {
                    OFFSET -2.33842 -0.294052 0.168128
                  }
                }
              }
              JOINT rPinky1
              {
                OFFSET -8.27202 -0.0477905 -0.4584
                CHANNELS 3 Zrotation Xrotation Yrotation
                JOINT rPinky2
                {
                  OFFSET -1.82734 -0.647385 -0.700984
                  CHANNELS 3 Zrotation Xrotation Yrotation
                  End Site
                  {
                    OFFSET -1.69225 -0.51767 -0.607171
                  }
                }
              }
            }
          }
        }
      }
      JOINT lCollar
      {
        OFFSET 2.68224 19.2634 -4.8768
        CHANNELS 3 Zrotation Xrotation Yrotation
        JOINT lShldr
        {
          OFFSET 8.77824 -1.95073 1.46304
          CHANNELS 3 Zrotation Xrotation Yrotation
          JOINT lForeArm
          {
            OFFSET 28.1742 -1.7115 0.48768
            CHANNELS 3 Zrotation Xrotation Yrotation
            JOINT lHand
            {
              OFFSET 22.5879 0.773209 7.07136
              CHANNELS 3 Zrotation Xrotation Yrotation
              JOINT lThumb1
              {
                OFFSET 1.2192 -0.487915 3.41376
                CHANNELS 3 Zrotation Xrotation Yrotation
                JOINT lThumb2
                {
                  OFFSET 3.37035 -0.52449 3.41376
                  CHANNELS 3 Zrotation Xrotation Yrotation
                  End Site
                  {
                    OFFSET 1.78271 -1.18214 1.43049
                  }
                }
              }
              JOINT lIndex1
              {
                OFFSET 7.75947 0.938293 5.60832
                CHANNELS 3 Zrotation Xrotation Yrotation
                JOINT lIndex2
                {
                  OFFSET 2.54057 -0.884171 1.56538
                  CHANNELS 3 Zrotation Xrotation Yrotation
                  End Site
                  {
                    OFFSET 1.62519 -0.234802 1.16502
                  }
                }
              }
              JOINT lMid1
              {
                OFFSET 8.24714 1.18213 3.41376
                CHANNELS 3 Zrotation Xrotation Yrotation
                JOINT lMid2
                {
                  OFFSET 3.10165 -0.590103 1.0647
                  CHANNELS 3 Zrotation Xrotation Yrotation
                  End Site
                  {
                    OFFSET 2.48547 -0.328903 0.83742
                  }
                }
              }
              JOINT lRing1
              {
                OFFSET 8.82822 0.546677 1.51678
                CHANNELS 3 Zrotation Xrotation Yrotation
                JOINT lRing2
                {
                  OFFSET 2.60934 -0.819778 -0.0198488
                  CHANNELS 3 Zrotation Xrotation Yrotation
                  End Site
                  {
                    OFFSET 2.33842 -0.294052 0.168128
                  }
                }
              }
              JOINT lPinky1
              {
                OFFSET 8.27202 -0.0477905 -0.4584
                CHANNELS 3 Zrotation Xrotation Yrotation
                JOINT lPinky2
                {
                  OFFSET 1.82734 -0.647385 -0.700984
                  CHANNELS 3 Zrotation Xrotation Yrotation
                  End Site
                  {
                    OFFSET 1.69225 -0.51767 -0.607171
                  }
                }
              }
            }
          }
        }
      }
    }
  }
  JOINT rButtock
  {
    OFFSET -8.77824 4.35084 1.2192
    CHANNELS 3 Zrotation Xrotation Yrotation
    JOINT rThigh
    {
      OFFSET 0 -1.70687 -2.19456
      CHANNELS 3 Zrotation Xrotation Yrotation
      JOINT rShin
      {
        OFFSET 0 -36.8199 0.73152
        CHANNELS 3 Zrotation Xrotation Yrotation
        JOINT rFoot
        {
          OFFSET 0.73152 -45.1104 -5.12064
          CHANNELS 3 Zrotation Xrotation Yrotation
          End Site
          {
            OFFSET -1.1221 -3.69964 12.103
          }
        }
      }
    }
  }
  JOINT lButtock
  {
    OFFSET 8.77824 4.35084 1.2192
    CHANNELS 3 Zrotation Xrotation Yrotation
    JOINT lThigh
    {
      OFFSET 0 -1.70687 -2.19456
      CHANNELS 3 Zrotation Xrotation Yrotation
      JOINT lShin
      {
        OFFSET 0 -36.8199 0.73152
        CHANNELS 3 Zrotation Xrotation Yrotation
        JOINT lFoot
        {
          OFFSET -0.73152 -45.1104 -5.12064
          CHANNELS 3 Zrotation Xrotation Yrotation
          End Site
          {
            OFFSET 1.1221 -3.69964 12.103
          }
        }
      }
    }
  }
}
MOTION
Frames:	6
Frame Time:	0.00833333
-12.6795 83.4274 62.7415 -3.6168 1.0436 8.4825 11.0659 3.89196 -9.8321 1.21684 0.590466 -2.67227 -4.39095 3.05542 -4.62456 -7.15428 -4.86694 -8.47968 -0.0 0.0 0.0 -0.0 0.0 0.0 8.64358e-14 1.71443e-13 -5.10605e-14 73.7327 -3.36352 -16.1341 -7.04992 -2.53289 12.3735 -0.00115906 0.976129 0.137199 -1.44184e-10 8.52612e-10 -2.60423e-09 -2.52001e-10 1.47183e-09 -4.50267e-09 -1.44167e-10 8.52621e-10 -2.60424e-09 7.73091 5.47488 0.417314 -1.44183e-10 8.52614e-10 -2.60423e-09 2.90554 0.965183 0.102902 -1.44158e-10 8.52622e-10 -2.60423e-09 10.2786 0.731801 0.0259123 -1.44183e-10 8.52613e-10 -2.60423e-09 2.22167 -0.733487 -0.20892 8.63698e-14 1.71436e-13 -5.13812e-14 -82.8501 37.1822 6.3463 19.8876 -12.8711 -38.4076 0.0010168 -0.906382 0.127394 1.69292e-10 -1.74802e-10 -1.39108e-10 2.97663e-10 -2.96401e-10 -2.37955e-10 1.69286e-10 -1.74805e-10 -1.39112e-10 -7.73091 5.47488 -0.417314 1.69301e-10 -1.74808e-10 -1.39126e-10 -2.90554 0.965183 -0.102902 1.69292e-10 -1.74808e-10 -1.39115e-10 -10.2786 0.731801 -0.0259123 1.69299e-10 -1.74806e-10 -1.39127e-10 -2.22167 -0.733487 0.20892 -2.03217e-16 0.0 -3.88251e-19 7.84116 -11.8939 -2.46959 -0.00849624 16.1713 0.309425 -4.43006 -10.7481 -16.8389 2.03217e-16 0.0 3.88251e-19 14.8508 -10.9359 -4.55823 0.051788 14.0545 -0.235641 2.33686 -8.1042 9.29612
-12.6564 83.421 62.7203 -3.5244 0.8836 8.5816 11.0215 3.96737 -9.85084 1.26357 0.656026 -2.67718 -4.47218 2.98972 -4.63202 -6.94841 -4.76753 -8.45646 -0.0 0.0 0.0 -0.0 0.0 0.0 3.77916e-14 1.68574e-13 -7.45443e-14 73.6751 -3.09079 -16.2237 -7.12629 -2.56976 12.512 -0.00108121 0.938872 0.131962 8.89907e-11 6.84007e-10 -2.93276e-09 1.50051e-10 1.17794e-09 -5.0712e-09 8.90118e-11 6.84017e-10 -2.93276e-09 7.73091 5.47488 0.417314 8.89925e-11 6.84008e-10 -2.93275e-09 2.90554 0.965183 0.102902 8.90206e-11 6.84019e-10 -2.93276e-09 10.2786 0.731801 0.0259123 8.89925e-11 6.84008e-10 -2.93276e-09 2.22167 -0.733487 -0.20892 3.77492e-14 1.68565e-13 -7.48921e-14 -82.7974 37.1549 6.28549 19.858 -12.8343 -38.3364 0.00103005 -0.916393 0.128802 4.27632e-10 2.41754e-11 -1.19592e-10 7.44012e-10 4.69609e-11 -2.04653e-10 4.27625e-10 2.41706e-11 -1.19598e-10 -7.73091 5.47488 -0.417314 4.27642e-10 2.41684e-11 -1.19611e-10 -2.90554 0.965183 -0.102902 4.27634e-10 2.41686e-11 -1.196e-10 -10.2786 0.731801 -0.0259123 4.2764e-10 2.41714e-11 -1.19614e-10 -2.22167 -0.733487 0.20892 -2.03217e-16 0.0 -3.88251e-19 7.849 -11.9501 -2.30164 -0.00814554 16.1887 0.308315 -4.39313 -10.7123 -16.7279 2.03217e-16 0.0 3.88251e-19 14.836 -10.8324 -4.54967 0.051474 14.0192 -0.235225 2.37606 -8.08335 9.49369
-12.7899 83.4344 62.7304 -3.584 0.2996 8.528 11.0352 4.05016 -9.86201 1.30284 0.733981 -2.67922 -4.56037 2.91458 -4.63121 -6.72487 -4.66858 -8.41396 -0.0 0.0 0.0 -0.0 0.0 0.0 -1.13438e-14 9.44165e-14 -6.06449e-14 73.5974 -2.88252 -16.2429 -7.16663 -2.58932 12.5852 -0.00118627 0.977421 0.137382 2.71889e-10 3.50729e-10 -1.86186e-09 4.67618e-10 6.02493e-10 -3.21985e-09 2.71912e-10 3.5074e-10 -1.86186e-09 7.73091 5.47488 0.417314 2.7189e-10 3.5073e-10 -1.86185e-09 2.90554 0.965183 0.102902 2.71919e-10 3.50741e-10 -1.86186e-09 10.2786 0.731801 0.0259123 2.7189e-10 3.50729e-10 -1.86185e-09 2.22167 -0.733487 -0.20892 -1.1368e-14 9.44046e-14 -6.10145e-14 -82.7816 37.0581 6.23939 19.8417 -12.8139 -38.2973 0.000795629 -0.829908 0.116644 5.0801e-10 2.242e-10 -4.66548e-11 8.8095e-10 3.90036e-10 -7.99577e-11 5.08002e-10 2.24193e-10 -4.66606e-11 -7.73091 5.47488 -0.417314 5.08018e-10 2.24192e-10 -4.66712e-11 -2.90554 0.965183 -0.102902 5.0801e-10 2.24192e-10 -4.66625e-11 -10.2786 0.731801 -0.0259123 5.08018e-10 2.24195e-10 -4.66764e-11 -2.22167 -0.733487 0.20892 -2.03217e-16 0.0 -3.88251e-19 7.8982 -11.9682 -2.18297 -0.00994508 16.1761 0.306419 -4.33762 -10.6493 -16.58 2.03217e-16 0.0 3.88251e-19 14.8794 -10.7289 -4.51755 0.0517001 13.9962 -0.234824 2.40238 -8.05909 9.63519
-12.7053 83.4372 62.7081 -3.5919 0.3364 8.6036 11.0833 4.14355 -9.8667 1.34148 0.820465 -2.67886 -4.65317 2.82718 -4.62365 -6.48817 -4.56794 -8.35568 -0.0 0.0 0.0 -0.0 0.0 0.0 -6.58455e-14 -2.6132e-14 -2.56308e-14 73.5069 -2.71856 -16.2103 -7.18567 -2.59866 12.6197 -0.00144124 1.06701 0.149977 4.42675e-10 -1.21196e-10 7.93519e-11 7.6568e-10 -2.10913e-10 1.36392e-10 4.42699e-10 -1.21186e-10 7.93485e-11 7.73091 5.47488 0.417314 4.42676e-10 -1.21196e-10 7.93587e-11 2.90554 0.965183 0.102902 4.42703e-10 -1.21186e-10 7.93493e-11 10.2786 0.731801 0.0259123 4.42675e-10 -1.21197e-10 7.93577e-11 2.22167 -0.733487 -0.20892 -6.58536e-14 -2.61479e-14 -2.60222e-14 -82.7866 36.9107 6.1958 19.8303 -12.7997 -38.27 0.000484646 -0.679281 0.0954702 5.01739e-10 4.48882e-10 6.19705e-11 8.66932e-10 7.74308e-10 1.05753e-10 5.01732e-10 4.48873e-10 6.19677e-11 -7.73091 5.47488 -0.417314 5.01746e-10 4.48874e-10 6.19596e-11 -2.90554 0.965183 -0.102902 5.01736e-10 4.48873e-10 6.19641e-11 -10.2786 0.731801 -0.0259123 5.01747e-10 4.48876e-10 6.1952e-11 -2.22167 -0.733487 0.20892 -2.03217e-16 0.0 -3.88251e-19 7.97684 -11.9585 -2.08233 -0.0131561 16.1412 0.303959 -4.27137 -10.5659 -16.4156 2.03217e-16 0.0 3.88251e-19 14.96 -10.6224 -4.47369 0.0522349 13.9819 -0.234436 2.42059 -8.03057 9.74295
-12.7348 83.4519 62.6961 -3.5848 -0.0128 8.6219 11.1423 4.23046 -9.87067 1.37803 0.898053 -2.67826 -4.74358 2.73719 -4.6117 -6.27449 -4.44182 -8.28894 -0.0 0.0 0.0 -0.0 0.0 0.0 -1.08492e-13 -1.39177e-13 1.15637e-14 73.4056 -2.6008 -16.1529 -7.18796 -2.59987 12.6238 -0.00180611 1.19546 0.168038 5.49401e-10 -5.87871e-10 2.04988e-09 9.5321e-10 -1.01486e-09 3.54357e-09 5.49425e-10 -5.87862e-10 2.04988e-09 7.73091 5.47488 0.417314 5.49401e-10 -5.87871e-10 2.04989e-09 2.90554 0.965183 0.102902 5.49427e-10 -5.87863e-10 2.04988e-09 10.2786 0.731801 0.0259123 5.49399e-10 -5.87873e-10 2.04989e-09 2.22167 -0.733487 -0.20892 -1.08489e-13 -1.39196e-13 1.11599e-14 -82.792 36.7552 6.14269 19.8147 -12.7804 -38.2325 0.000283512 -0.523624 0.073592 4.23124e-10 6.08438e-10 1.55944e-10 7.27936e-10 1.0462e-09 2.66273e-10 4.23116e-10 6.08428e-10 1.55945e-10 -7.73091 5.47488 -0.417314 4.23128e-10 6.0843e-10 1.55939e-10 -2.90554 0.965183 -0.102902 4.23117e-10 6.08429e-10 1.55939e-10 -10.2786 0.731801 -0.0259123 4.23131e-10 6.08431e-10 1.55929e-10 -2.22167 -0.733487 0.20892 -2.03217e-16 0.0 -3.88251e-19 8.05632 -11.9507 -1.99974 -0.0164459 16.1033 0.301497 -4.20366 -10.4876 -16.2391 2.03217e-16 0.0 3.88251e-19 15.0454 -10.5317 -4.4273 0.0527864 13.9739 -0.234118 2.43768 -7.99605 9.85035
-12.7889 83.4705 62.6832 -3.7929 -0.2421 8.6619 11.1887 4.29383 -9.87968 1.41105 0.94932 -2.67962 -4.82463 2.65424 -4.59774 -6.12005 -4.26638 -8.22108 -0.0 0.0 0.0 -0.0 0.0 0.0 -1.2206e-13 -1.90824e-13 3.20043e-14 73.2958 -2.53122 -16.0975 -7.17799 -2.59507 12.6056 -0.0022378 1.35062 0.189853 5.40119e-10 -9.05399e-10 3.20875e-09 9.39177e-10 -1.56193e-09 5.54773e-09 5.40141e-10 -9.05391e-10 3.20874e-09 7.73091 5.47488 0.417314 5.40118e-10 -9.05399e-10 3.20875e-09 2.90554 0.965183 0.102902 5.40141e-10 -9.05392e-10 3.20875e-09 10.2786 0.731801 0.0259123 5.40116e-10 -9.05401e-10 3.20876e-09 2.22167 -0.733487 -0.20892 -1.22055e-13 -1.90842e-13 3.16068e-14 -82.7769 36.6342 6.06793 19.7859 -12.7449 -38.1628 0.00021847 -0.422052 0.0593166 2.86466e-10 6.13084e-10 1.84927e-10 4.89943e-10 1.05212e-09 3.15397e-10 2.86458e-10 6.13074e-10 1.8493e-10 -7.73091 5.47488 -0.417314 2.86468e-10 6.13075e-10 1.84924e-10 -2.90554 0.965183 -0.102902 2.86457e-10 6.13075e-10 1.84923e-10 -10.2786 0.731801 -0.0259123 2.86473e-10 6.13076e-10 1.84914e-10 -2.22167 -0.733487 0.20892 -2.03217e-16 0.0 -3.88251e-19 8.10827 -11.9744 -1.93517 -0.0184775 16.0815 0.299596 -4.14345 -10.4399 -16.0548 2.03217e-16 0.0 3.88251e-19 15.1028 -10.4756 -4.38754 0.0530624 13.9695 -0.233931 2.46057 -7.95377 9.99077
